<svg xmlns="http://www.w3.org/2000/svg" viewBox="0 0 184.04 59.32"><defs><style>.cls-1{fill:#f9f9f9}</style></defs><title>Asset 1</title><g id="Layer_2" data-name="Layer 2"><g id="Layer_1-2" data-name="Layer 1"><path class="cls-1" d="M7.3 49.78V7.52H0V0h24.53v7.52h-7.16v42.26zm17.84-9.37V25.06c0-15.56 22.18-16.07 22.18 0v7.47H34.46v8a2.43 2.43 0 0 0 1.77 3 2.57 2.57 0 0 0 1.94-3.26v-4h9.15v4.07c0 13.11-22.18 13.48-22.18.07zm9.32-12.78h3.62v-5c0-3.39-3.62-3.38-3.62 0z"/><path class="cls-1" d="M50.38 41.07l7.14-2.54a6.27 6.27 0 0 0 4 5.23c6.28 0-4.7-10-3.79-9.27l-1.52-1.3C38.37 17.62 67.29 3.45 72.68 23L66 25.28a7.15 7.15 0 0 0-4.7-5.5c-6.57 0 3.5 8.89 3 8.46l1.7 1.52C83.84 45.91 55.63 59.7 50.38 41.07zm26-3.68V19.91h-2.66v-6.22h2.66V1.82h9.32v11.87h4.48v6.22H85.7v19.72q1.46 4.11 5.23 2.79l-.55 7.22c-9.75 2.95-14-3.5-14-12.25zm17.89 12.39V0h9.32v49.78zm14.13-9.37V25.06c0-15.64 22.6-16 22.6 0v15.35c0 13.05-22.6 13.46-22.6 0zm13.36.11V22.65c0-3.43-4-3.46-4 0v17.87c-.04 3.8 4 3.76 4 0zm37.86-27.66h1.16l-.78 6.67a5.6 5.6 0 0 0-4 1.22c5.1 9.15-3.28 20-12.92 18.17-1 2.71.87 2.74 3.73 3.15 12.4 1.81 18.17 12.34 3.53 16.79-7.87 2.39-24-4.81-12.58-13.05-5-2.52-2.35-5.59.44-9.13-4.82-8.78 1.91-35.07 14.58-21.52 1.64-1.8 4.52-2.3 6.84-2.3zM143.33 47.6h-.66c-4.53 7.12 8.21 5.89 8.21 3.21a7.06 7.06 0 0 0-7.55-3.21zm2.88-15.3c3.43 0 3.26-13 .14-13-3.6 0-3.26 13-.14 13z"/><path class="cls-1" d="M161.44 40.41V25.06c0-15.64 22.6-16 22.6 0v15.35c-.04 13.05-22.6 13.46-22.6 0zm13.36.11V22.65c0-3.43-4-3.46-4 0v17.87c-.04 3.8 4 3.76 4 0z"/></g></g></svg>