<svg xmlns="http://www.w3.org/2000/svg" viewBox="0 0 92.81 65.54"><defs><style>.cls-1{fill:none}.cls-2{fill:#f8f8f8}</style></defs><title>Asset 2</title><g id="Layer_2" data-name="Layer 2"><g id="Layer_1-2" data-name="Layer 1"><path class="cls-1" d="M74.5 39.32H64.2a2.61 2.61 0 0 0-1.78.66 2.84 2.84 0 0 0-.94 1.69l-2.15 12.16q-.28 2.34 2 2.34H71.6a2.61 2.61 0 0 0 1.78-.66 2.85 2.85 0 0 0 .94-1.69l2.15-12.17q.28-2.33-1.97-2.33zm4.59-26.21h-10.3A2.6 2.6 0 0 0 66 15.45l-2.08 12.17Q63.45 30 65.79 30h10.3a2.61 2.61 0 0 0 2.81-2.34L81 15.45q.43-2.34-1.91-2.34z"/><path class="cls-2" d="M47 0h-9a1.17 1.17 0 0 0-1.31 1.22L31.62 30a36.23 36.23 0 0 1-3 9.5 70.26 70.26 0 0 1-4.49 8.15 56.31 56.31 0 0 1-4.31 5.9 20 20 0 0 1-2.53 2.67 16.31 16.31 0 0 1-1.59-2.67 35 35 0 0 1-2.34-5.9 46.7 46.7 0 0 1-1.69-8.15A32.64 32.64 0 0 1 12 30l5-28.78Q17.11 0 16.08 0h-9a1.17 1.17 0 0 0-1.3 1.22L.45 31.83a30.2 30.2 0 0 0 .09 10.86A58.43 58.43 0 0 0 7 60.62q2 3.32 2.81 4.54a1.08 1.08 0 0 0 .75.37h10.2a1.08 1.08 0 0 0 .75-.37q.75-.84 2.48-2.62t3.84-4.26q2.11-2.48 4.45-5.57a74.25 74.25 0 0 0 4.4-6.51 60.79 60.79 0 0 0 3.65-7.07 32.78 32.78 0 0 0 2.25-7.3l5.33-30.61Q48 0 47 0zm44.07 6.46a7.59 7.59 0 0 0-6.18-2.71H66.17a9.9 9.9 0 0 0-3.79.75 12.45 12.45 0 0 0-3.32 2 12 12 0 0 0-2.53 2.95 9.5 9.5 0 0 0-1.31 3.65l-2.16 12.18a8.65 8.65 0 0 0 0 3.7 7.13 7.13 0 0 0 1.5 3 7.33 7.33 0 0 0 2.67 2 8.72 8.72 0 0 0 3.56.7l-.09.19a9.91 9.91 0 0 0-3.79.75 12.46 12.46 0 0 0-3.32 2 11.23 11.23 0 0 0-2.48 2.95 11.41 11.41 0 0 0-1.36 3.65l-2.06 12a8.65 8.65 0 0 0 0 3.7 7.14 7.14 0 0 0 1.5 3 7.33 7.33 0 0 0 2.67 2 8.72 8.72 0 0 0 3.56.7h18.8a10.47 10.47 0 0 0 3.79-.7 10.93 10.93 0 0 0 3.28-2 12.24 12.24 0 0 0 2.48-3 11.35 11.35 0 0 0 1.4-3.7l2.06-12a7.9 7.9 0 0 0-1.59-6.65 7.59 7.59 0 0 0-6.18-2.72l.09-.19a10.47 10.47 0 0 0 3.79-.7 10.92 10.92 0 0 0 3.28-2 12.23 12.23 0 0 0 2.48-3 11.35 11.35 0 0 0 1.4-3.7l2.15-12.17a7.9 7.9 0 0 0-1.58-6.63zm-14.6 35.2l-2.16 12.17a2.85 2.85 0 0 1-.94 1.69 2.61 2.61 0 0 1-1.78.66H61.3q-2.25 0-2-2.34l2.15-12.17a2.84 2.84 0 0 1 .97-1.67 2.61 2.61 0 0 1 1.78-.66h10.3q2.25-.02 1.97 2.32zM81 15.45l-2.1 12.17A2.61 2.61 0 0 1 76.09 30h-10.3q-2.34 0-1.87-2.34L66 15.45a2.6 2.6 0 0 1 2.81-2.34h10.3q2.32 0 1.89 2.34z"/></g></g></svg>